HIERARCHY
ROOT Hips
{
	OFFSET 0.000000 0.000000 0.000000 
	CHANNELS 6 Xposition Yposition Zposition Zrotation Yrotation Xrotation
	JOINT LeftUpLeg
	{
		OFFSET 1.363060 -1.794630 0.839290 
		CHANNELS 3 Zrotation Yrotation Xrotation
		JOINT LeftLeg
		{
			OFFSET 2.448110 -6.726130 0.000000 
			CHANNELS 3 Zrotation Yrotation Xrotation
			JOINT LeftFoot
			{
				OFFSET 2.562200 -7.039590 0.000000 
				CHANNELS 3 Zrotation Yrotation Xrotation
				JOINT LeftToeBase
				{
					OFFSET 0.157640 -0.433110 2.322550 
					CHANNELS 3 Zrotation Yrotation Xrotation
					End Site
					{
						OFFSET 0.000000 0.000000 0.000000 
					}
				}
			}
		}
	}
	JOINT RightUpLeg
	{
		OFFSET -1.305520 -1.794630 0.839290 
		CHANNELS 3 Zrotation Yrotation Xrotation
		JOINT RightLeg
		{
			OFFSET -2.542530 -6.985550 0.000000 
			CHANNELS 3 Zrotation Yrotation Xrotation
			JOINT RightFoot
			{
				OFFSET -2.568260 -7.056230 0.000000 
				CHANNELS 3 Zrotation Yrotation Xrotation
				JOINT RightToeBase
				{
					OFFSET -0.164730 -0.452590 2.363150 
					CHANNELS 3 Zrotation Yrotation Xrotation
					End Site
					{
						OFFSET 0.000000 0.000000 0.000000 
					}
				}
			}
		}
	}
	JOINT Spine
	{
		OFFSET 0.028270 2.035590 -0.193380 
		CHANNELS 3 Zrotation Yrotation Xrotation
		JOINT Spine1
		{
			OFFSET 0.056720 2.048850 -0.042750 
			CHANNELS 3 Zrotation Yrotation Xrotation
			JOINT Neck1
			{
				OFFSET -0.054170 1.746240 0.172020 
				CHANNELS 3 Zrotation Yrotation Xrotation
				JOINT Head
				{
					OFFSET 0.104070 1.761360 -0.123970 
					CHANNELS 3 Zrotation Yrotation Xrotation
					End Site
					{
						OFFSET 0.000000 0.000000 0.000000 
					}
				}
			}
			JOINT LeftArm
			{
				OFFSET 3.362410 1.200890 -0.311210 
				CHANNELS 3 Zrotation Yrotation Xrotation
				JOINT LeftForeArm
				{
					OFFSET 4.983000 -0.000000 -0.000000 
					CHANNELS 3 Zrotation Yrotation Xrotation
					JOINT LeftHand
					{
						OFFSET 3.483560 -0.000000 -0.000000 
						CHANNELS 3 Zrotation Yrotation Xrotation
						JOINT LeftHandIndex1
						{
							OFFSET 0.715260 -0.000000 -0.000000 
							CHANNELS 3 Zrotation Yrotation Xrotation
							End Site
							{
								OFFSET 0.000000 0.000000 0.000000 
							}
						}
					}
				}
			}
			JOINT RightArm
			{
				OFFSET -3.136600 1.374050 -0.404650 
				CHANNELS 3 Zrotation Yrotation Xrotation
				JOINT RightForeArm
				{
					OFFSET -5.241900 -0.000000 -0.000000 
					CHANNELS 3 Zrotation Yrotation Xrotation
					JOINT RightHand
					{
						OFFSET -3.444170 -0.000000 -0.000000 
						CHANNELS 3 Zrotation Yrotation Xrotation
						JOINT RightHandIndex1
						{
							OFFSET -0.622530 -0.000000 -0.000000 
							CHANNELS 3 Zrotation Yrotation Xrotation
							End Site
							{
								OFFSET 0.000000 0.000000 0.000000 
							}
						}
					}
				}
			}
		}
	}
}
MOTION
Frames: 12
Frame Time: 0.041667
-33.343959 17.989668 -2.753435 -25.577998 77.332861 -18.992291 -3.122705 -5.223773 -21.558874 0.268578 11.359775 31.438046 5.952533 -8.628879 10.170548 0.174300 -2.689500 -7.415300 15.860466 13.768397 -0.785348 3.349538 -4.762456 14.750667 -2.363143 3.925803 1.154758 -0.023900 -0.997600 2.742300 3.900460 0.634962 5.709439 1.448052 1.114973 0.017834 0.462564 8.520176 -9.736485 -1.532300 3.873700 -3.093900 -85.495834 17.753203 33.284817 28.331545 -38.671470 -12.747899 0.703761 -1.931086 -7.162603 -7.125000 0.000000 0.000000 65.621666 -12.487618 51.278337 -24.630823 32.547303 -7.522229 0.688193 0.564516 1.128498 7.125000 0.000000 0.000000 
-33.345302 17.990288 -2.752712 -25.486486 77.361678 -18.913448 -3.141557 -5.254289 -21.549422 0.263699 11.357703 31.433667 5.939938 -8.605533 10.205029 0.171800 -2.670300 -7.362100 15.856205 13.808608 -0.784785 3.341973 -4.780335 14.793578 -2.326947 3.807640 1.087368 -0.019700 -0.906300 2.491100 3.905136 0.617040 5.693709 1.483723 1.107523 0.011252 0.403360 8.277812 -10.242931 -1.571200 3.747300 -3.314300 -85.578815 17.780135 33.097263 28.437734 -38.762069 -12.818053 0.698982 -1.818064 -7.102249 -7.125000 0.000000 0.000000 65.570384 -12.464426 51.307928 -24.677589 32.587999 -7.543618 0.678261 0.569062 1.090793 7.125000 0.000000 0.000000 
-33.346231 17.990288 -2.754365 -25.628808 77.379076 -19.090336 -3.129350 -5.263579 -21.519213 0.263384 11.352419 31.427221 5.937031 -8.595877 10.212752 0.176500 -2.706300 -7.462200 15.899978 13.766300 -0.790044 3.330183 -4.809278 14.869599 -2.323998 3.799013 0.999473 -0.019300 -0.896000 2.462800 3.869631 0.565812 5.591909 1.400911 1.083846 -0.206866 0.425730 8.350318 -10.072874 -1.570900 3.782500 -3.259400 -85.602445 17.962323 32.915694 28.519022 -38.839360 -12.887697 0.704383 -1.816005 -7.085800 -7.125000 0.000000 0.000000 65.592922 -12.532628 51.477091 -24.691132 32.598896 -7.543115 0.672210 0.571483 1.014581 7.125000 0.000000 0.000000 
-33.346645 17.990495 -2.752402 -25.472863 77.381498 -18.948966 -3.145803 -5.289160 -21.503150 0.255688 11.347397 31.411576 5.921204 -8.560596 10.251605 0.176500 -2.706400 -7.462400 15.900820 13.914385 -0.742494 3.321095 -4.833160 14.926237 -2.258895 3.593463 0.897406 -0.016600 -0.832400 2.287600 3.855366 0.574227 5.585313 1.407516 1.084312 -0.217464 0.595113 8.625006 -9.454015 -1.452200 3.932500 -2.995900 -85.575191 18.005869 32.892179 28.607447 -38.915875 -12.956533 0.708434 -1.814797 -7.096548 -7.125000 0.000000 0.000000 65.615608 -12.586229 51.442618 -24.797207 32.699259 -7.599727 0.666185 0.575213 0.967761 7.125000 0.000000 0.000000 
-33.346335 17.994626 -2.750956 -25.539129 77.390049 -19.047616 -3.138546 -5.250988 -21.483529 0.251746 11.338060 31.397110 5.927547 -8.574352 10.296857 0.173000 -2.679400 -7.387500 15.958894 13.938106 -0.750976 3.311542 -4.860059 14.988601 -2.197755 3.410018 0.824515 -0.012000 -0.707100 1.943300 3.858050 0.585643 5.603642 1.416028 1.089245 -0.171501 0.366914 8.562292 -9.611204 -1.597000 3.892800 -3.080700 -85.544636 17.976401 32.949921 28.633078 -38.932807 -12.978558 0.714304 -1.856430 -7.139874 -7.125000 0.000000 0.000000 65.620809 -12.530203 51.449355 -24.784663 32.685821 -7.589589 0.656022 0.585811 0.811274 7.125000 0.000000 0.000000 
-33.346645 17.996176 -2.749924 -25.552858 77.403997 -19.086139 -3.137143 -5.247641 -21.463840 0.244892 11.328725 31.378058 5.924574 -8.567917 10.349554 0.170700 -2.661700 -7.338200 15.994546 13.992019 -0.739189 3.300960 -4.887893 15.056075 -2.149132 3.260609 0.727182 -0.009700 -0.635000 1.744900 3.849395 0.582381 5.591222 1.407499 1.086728 -0.190169 0.352746 8.607938 -9.500255 -1.605500 3.916400 -3.042900 -85.527943 18.007286 32.940652 28.686483 -38.979085 -13.020231 0.717136 -1.849796 -7.160773 -7.125000 0.000000 0.000000 65.633404 -12.539871 51.470524 -24.817492 32.715794 -7.603901 0.647277 0.592289 0.729645 7.125000 0.000000 0.000000 
-33.347058 17.997312 -2.748891 -25.589317 77.419543 -19.147125 -3.132764 -5.243330 -21.446783 0.239772 11.321584 31.365324 5.924384 -8.569158 10.402131 0.167400 -2.636100 -7.267200 16.033995 14.047875 -0.716898 3.292668 -4.909572 15.107019 -2.098631 3.107499 0.634312 -0.007800 -0.570000 1.566400 3.841192 0.580334 5.581926 1.395764 1.084974 -0.202518 0.356022 8.656617 -9.375576 -1.603400 3.942100 -2.998000 -85.501054 18.032617 32.958017 28.729945 -39.017477 -13.054460 0.719756 -1.844186 -7.185326 -7.125000 0.000000 0.000000 65.652604 -12.552619 51.486538 -24.845908 32.741928 -7.616081 0.638625 0.598467 0.657947 7.125000 0.000000 0.000000 
-33.347574 17.997931 -2.747445 -25.654959 77.436926 -19.236855 -3.123848 -5.239535 -21.434313 0.236956 11.317662 31.362853 5.928451 -8.583276 10.459815 0.162100 -2.593900 -7.150100 16.079126 14.108687 -0.681544 3.287073 -4.924279 15.139893 -2.046985 2.952588 0.544851 -0.006300 -0.513700 1.411500 3.836095 0.580914 5.579178 1.385484 1.084637 -0.200055 0.375208 8.689510 -9.277072 -1.591500 3.960100 -2.962200 -85.467176 18.045120 32.998536 28.763479 -39.047767 -13.080775 0.721866 -1.834525 -7.208176 -7.125000 0.000000 0.000000 65.675204 -12.565656 51.492785 -24.870804 32.765117 -7.626667 0.630286 0.604177 0.601145 7.125000 0.000000 0.000000 
-33.348194 17.998035 -2.746102 -25.753830 77.459342 -19.359449 -3.111792 -5.237429 -21.424933 0.236744 11.316605 31.368899 5.936036 -8.606822 10.508019 0.157300 -2.555200 -7.042700 16.126613 14.158099 -0.640295 3.283799 -4.932738 15.156663 -2.000300 2.814167 0.463012 -0.005300 -0.469000 1.288600 3.831572 0.580004 5.576687 1.370879 1.084121 -0.195938 0.401606 8.702570 -9.217608 -1.576700 3.967900 -2.942100 -85.429153 18.054313 33.052343 28.786847 -39.070241 -13.099575 0.723679 -1.823041 -7.223218 -7.125000 0.000000 0.000000 65.702295 -12.581266 51.500673 -24.886993 32.780179 -7.632515 0.622739 0.608792 0.559684 7.125000 0.000000 0.000000 
-33.349020 17.997622 -2.744553 -25.868663 77.483885 -19.497248 -3.097855 -5.237513 -21.418102 0.238704 11.318358 31.381923 5.947246 -8.640068 10.543675 0.153600 -2.525100 -6.959300 16.174099 14.203015 -0.591864 3.282805 -4.934844 15.157642 -1.957536 2.688458 0.390405 -0.004600 -0.437200 1.201300 3.826727 0.579719 5.574293 1.353005 1.084046 -0.191615 0.440992 8.716986 -9.154798 -1.554200 3.976600 -2.919400 -85.385792 18.062579 33.117913 28.801240 -39.085745 -13.111411 0.724904 -1.810101 -7.226898 -7.125000 0.000000 0.000000 65.737103 -12.605119 51.504721 -24.898320 32.791037 -7.636152 0.616519 0.611947 0.535835 7.125000 0.000000 0.000000 
-33.349846 17.996589 -2.742900 -26.001472 77.510060 -19.652701 -3.082317 -5.237538 -21.414196 0.242877 11.322547 31.401031 5.963008 -8.684520 10.563380 0.151900 -2.511000 -6.920200 16.221670 14.241992 -0.535812 3.283902 -4.931212 15.144090 -1.921011 2.582669 0.326329 -0.004200 -0.420600 1.155700 3.822804 0.580404 5.573890 1.334257 1.084755 -0.182608 0.474768 8.713338 -9.132736 -1.535700 3.975700 -2.913100 -85.340386 18.064626 33.191108 28.804433 -39.091660 -13.115171 0.726179 -1.801776 -7.217589 -7.125000 0.000000 0.000000 65.776944 -12.631255 51.505835 -24.901472 32.794383 -7.635564 0.612170 0.613239 0.526316 7.125000 0.000000 0.000000 
-33.350569 17.995453 -2.741144 -26.144338 77.539073 -19.818003 -3.067226 -5.238925 -21.409889 0.248409 11.328080 31.423302 5.981758 -8.736241 10.563429 0.152600 -2.517000 -6.936900 16.265942 14.263850 -0.482543 3.286667 -4.923113 15.119874 -1.891791 2.499306 0.280522 -0.004100 -0.413000 1.134700 3.818239 0.581047 5.573851 1.311918 1.085709 -0.172421 0.497309 8.709922 -9.119069 -1.524400 3.974400 -2.911200 -85.293615 18.065659 33.269493 28.799414 -39.090429 -13.112562 0.727301 -1.797382 -7.198998 -7.125000 0.000000 0.000000 65.823126 -12.662060 51.504661 -24.895447 32.789235 -7.630353 0.609386 0.612778 0.527024 7.125000 0.000000 0.000000 
